:FULLY-SPECIFIED
:FORCE-ALL-JOINTS-BE-3DOF
:DEGREES
2242
root -0.696221 13.7736 -16.7525 910.728 -27.2557 168.643
lfemur 11.6304 -1.3886 -15.1437
ltibia 34.7604 0 0
lfoot -24.8057 37.1941 0
ltoes -44.3918 0 0
rfemur -72.4189 -23.4792 8.17206
rtibia 73.2384 0 0
rfoot -5.11417 14.5883 0
rtoes 4.11766 0 0
lowerback 9.61863 1.85777 -14.044
upperback -2.80635 0.303399 -2.07219
thorax -8.6342 0.740771 5.60926
lowerneck 1.18027 -12.308 -12.564
upperneck 4.7938 -17.1725 10.7262
head 3.21671 -8.62838 4.49701
lclavicle 8.94362e-15 2.80368e-14 0
lhumerus -72.037 -18.3408 103.573
lradius 104.106 0 0
lwrist 63.1844 0 0
lhand -10.4581 420.701 0
lfingers 7.12502 0 0
lthumb 15.5447 -280.08 0
rclavicle 8.94362e-15 2.80368e-14 0
rhumerus 50.8218 -10.1931 -58.5459
rradius 15.0168 0 0
rwrist 36.3923 0 0
rhand -19.8598 -402.924 0
rfingers 7.12502 0 0
rthumb 6.4752 287.194 0
2243
root -0.704629 13.7724 -16.7335 910.952 -27.0818 168.584
lfemur 11.6426 -1.37609 -15.25
ltibia 34.2382 0 0
lfoot -24.5335 37.1605 0
ltoes -44.5089 0 0
rfemur -72.5063 -23.5336 8.29523
rtibia 73.4853 0 0
rfoot -5.4248 14.5971 0
rtoes 4.16552 0 0
lowerback 9.52544 1.86594 -14.0459
upperback -2.85041 0.322132 -2.09241
thorax -8.6327 0.750245 5.58393
lowerneck 1.13765 -12.285 -12.5222
upperneck 4.76011 -17.1299 10.6942
head 3.20635 -8.60535 4.48324
lclavicle 9.40318e-15 2.81745e-14 0
lhumerus -71.6274 -18.3187 103.636
lradius 103.763 0 0
lwrist 62.8271 0 0
lhand -10.5801 420.623 0
lfingers 7.12502 0 0
lthumb 15.427 -276.848 0
rclavicle 9.40318e-15 2.81745e-14 0
rhumerus 50.5525 -10.1227 -58.6261
rradius 15.3285 0 0
rwrist 36.0422 0 0
rhand -19.8656 -402.883 0
rfingers 7.12502 0 0
rthumb 6.46958 287.235 0
2244
root -0.712629 13.771 -16.7168 911.163 -26.9158 168.528
lfemur 11.6621 -1.36253 -15.3487
ltibia 33.7373 0 0
lfoot -24.2746 37.1289 0
ltoes -44.6247 0 0
rfemur -72.5946 -23.5858 8.41423
rtibia 73.7261 0 0
rfoot -5.72187 14.6054 0
rtoes 4.21444 0 0
lowerback 9.43742 1.87448 -14.0478
upperback -2.89191 0.340969 -2.11144
thorax -8.63135 0.759755 5.55984
lowerneck 1.09685 -12.2631 -12.4821
upperneck 4.7278 -17.0892 10.6631
head 3.19629 -8.58329 4.46993
lclavicle 9.79252e-15 2.82801e-14 0
lhumerus -71.243 -18.3001 103.696
lradius 103.44 0 0
lwrist 62.4994 0 0
lhand -10.7052 420.55 0
lfingers 7.12502 0 0
lthumb 15.3062 -274.045 0
rclavicle 9.79252e-15 2.82801e-14 0
rhumerus 50.3007 -10.0563 -58.6973
rradius 15.6224 0 0
rwrist 35.7108 0 0
rhand -19.8709 -402.843 0
rfingers 7.12502 0 0
rthumb 6.46452 287.275 0
2245
root -0.720159 13.7694 -16.7027 911.363 -26.759 168.475
lfemur 11.6906 -1.34818 -15.4392
ltibia 33.2595 0 0
lfoot -24.0307 37.1 0
ltoes -44.7398 0 0
rfemur -72.685 -23.636 8.52831
rtibia 73.9606 0 0
rfoot -6.00385 14.6134 0
rtoes 4.26502 0 0
lowerback 9.35492 1.88343 -14.0496
upperback -2.93065 0.359859 -2.12929
thorax -8.63018 0.769282 5.53711
lowerneck 1.05812 -12.2424 -12.4439
upperneck 4.69696 -17.0507 10.6331
head 3.18657 -8.56242 4.45714
lclavicle 1.01072e-14 2.83524e-14 0
lhumerus -70.8876 -18.2857 103.754
lradius 103.141 0 0
lwrist 62.2055 0 0
lhand -10.8332 420.48 0
lfingers 7.12502 0 0
lthumb 15.1827 -271.698 0
rclavicle 1.01072e-14 2.83524e-14 0
rhumerus 50.0692 -9.99473 -58.7581
rradius 15.8957 0 0
rwrist 35.4012 0 0
rhand -19.8756 -402.806 0
rfingers 7.12502 0 0
rthumb 6.45994 287.312 0
2246
root -0.727156 13.7675 -16.6918 911.549 -26.6126 168.425
lfemur 11.7296 -1.33331 -15.5208
ltibia 32.8066 0 0
lfoot -23.8035 37.074 0
ltoes -44.8546 0 0
rfemur -72.7787 -23.6843 8.63676
rtibia 74.1887 0 0
rfoot -6.2692 14.6214 0
rtoes 4.31786 0 0
lowerback 9.27832 1.8928 -14.0518
upperback -2.96643 0.378752 -2.14597
thorax -8.62917 0.778808 5.51589
lowerneck 1.02172 -12.2233 -12.4078
upperneck 4.66768 -17.0148 10.6044
head 3.17722 -8.54295 4.44495
lclavicle 1.03427e-14 2.83903e-14 0
lhumerus -70.5653 -18.276 103.809
lradius 102.868 0 0
lwrist 61.9498 0 0
lhand -10.9635 420.416 0
lfingers 7.12502 0 0
lthumb 15.057 -269.834 0
rclavicle 1.03427e-14 2.83903e-14 0
rhumerus 49.8609 -9.939 -58.8073
rradius 16.1453 0 0
rwrist 35.1166 0 0
rhand -19.8799 -402.771 0
rfingers 7.12502 0 0
rthumb 6.45578 287.347 0
2247
root -0.733558 13.7654 -16.6844 911.721 -26.4777 168.378
lfemur 11.7805 -1.31819 -15.5929
ltibia 32.3804 0 0
lfoot -23.5947 37.0515 0
ltoes -44.9693 0 0
rfemur -72.8768 -23.7308 8.73883
rtibia 74.41 0 0
rfoot -6.5164 14.6296 0
rtoes 4.37356 0 0
lowerback 9.20799 1.90261 -14.0545
upperback -2.99906 0.397596 -2.16146
thorax -8.62832 0.788312 5.49631
lowerneck 0.987918 -12.206 -12.3741
upperneck 4.64004 -16.9819 10.5773
head 3.16826 -8.52508 4.43344
lclavicle 1.04946e-14 2.83925e-14 0
lhumerus -70.28 -18.2717 103.861
lradius 102.625 0 0
lwrist 61.7365 0 0
lhand -11.0958 420.357 0
lfingers 7.12502 0 0
lthumb 14.9293 -268.482 0
rclavicle 1.04946e-14 2.83925e-14 0
rhumerus 49.6787 -9.89008 -58.8436
rradius 16.3685 0 0
rwrist 34.8601 0 0
rhand -19.8838 -402.739 0
rfingers 7.12502 0 0
rthumb 6.45198 287.379 0
2248
root -0.739302 13.763 -16.681 911.878 -26.3558 168.334
lfemur 11.8449 -1.30308 -15.6547
ltibia 31.9827 0 0
lfoot -23.406 37.0329 0
ltoes -45.0845 0 0
rfemur -72.9805 -23.7757 8.8338
rtibia 74.6245 0 0
rfoot -6.74392 14.6383 0
rtoes 4.43271 0 0
lowerback 9.14432 1.91288 -14.0579
upperback -3.02835 0.416341 -2.17578
thorax -8.62763 0.797777 5.47851
lowerneck 0.956962 -12.1908 -12.343
upperneck 4.61413 -16.9524 10.5519
head 3.15973 -8.50904 4.42267
lclavicle 1.05583e-14 2.83581e-14 0
lhumerus -70.0355 -18.2734 103.908
lradius 102.415 0 0
lwrist 61.5701 0 0
lhand -11.2295 420.304 0
lfingers 7.12502 0 0
lthumb 14.8002 -267.669 0
rclavicle 1.05583e-14 2.83581e-14 0
rhumerus 49.5254 -9.84896 -58.8657
rradius 16.5623 0 0
rwrist 34.6349 0 0
rhand -19.8875 -402.71 0
rfingers 7.12502 0 0
rthumb 6.44847 287.408 0
2249
root -0.744325 13.7603 -16.6821 912.02 -26.2479 168.293
lfemur 11.9242 -1.28825 -15.7057
ltibia 31.6151 0 0
lfoot -23.2391 37.0188 0
ltoes -45.2005 0 0
rfemur -73.0909 -23.8191 8.92093
rtibia 74.832 0 0
rfoot -6.95022 14.6475 0
rtoes 4.49592 0 0
lowerback 9.08766 1.92363 -14.0623
upperback -3.0541 0.434935 -2.18893
thorax -8.6271 0.807183 5.46262
lowerneck 0.929114 -12.1779 -12.3148
upperneck 4.59005 -16.9268 10.5284
head 3.15166 -8.49501 4.41273
lclavicle 1.05295e-14 2.82857e-14 0
lhumerus -69.8359 -18.2817 103.951
lradius 102.241 0 0
lwrist 61.4548 0 0
lhand -11.3644 420.257 0
lfingers 7.12502 0 0
lthumb 14.6701 -267.421 0
rclavicle 1.05295e-14 2.82857e-14 0
rhumerus 49.404 -9.81661 -58.8722
rradius 16.7237 0 0
rwrist 34.4443 0 0
rhand -19.8909 -402.685 0
rfingers 7.12502 0 0
rthumb 6.44517 287.433 0
2250
root -0.748564 13.7572 -16.6882 912.145 -26.1553 168.254
lfemur 12.0199 -1.27397 -15.7452
ltibia 31.2796 0 0
lfoot -23.0956 37.0094 0
ltoes -45.3177 0 0
rfemur -73.2093 -23.861 8.99949
rtibia 75.0321 0 0
rfoot -7.13377 14.6577 0
rtoes 4.56378 0 0
lowerback 9.0384 1.93488 -14.0678
upperback -3.07612 0.453328 -2.20091
thorax -8.62673 0.816512 5.44879
lowerneck 0.904632 -12.1676 -12.2897
upperneck 4.56788 -16.9054 10.507
head 3.14408 -8.48323 4.40368
lclavicle 1.04037e-14 2.81743e-14 0
lhumerus -69.6851 -18.2972 103.989
lradius 102.106 0 0
lwrist 61.3948 0 0
lhand -11.4998 420.218 0
lfingers 7.12502 0 0
lthumb 14.5394 -267.767 0
rclavicle 1.04037e-14 2.81743e-14 0
rhumerus 49.3173 -9.794 -58.862
rradius 16.8499 0 0
rwrist 34.2913 0 0
rhand -19.8941 -402.664 0
rfingers 7.12502 0 0
rthumb 6.44204 287.454 0
2251
root -0.751957 13.7537 -16.6997 912.252 -26.0792 168.219
lfemur 12.1337 -1.2605 -15.7725
ltibia 30.9779 0 0
lfoot -22.9773 37.0054 0
ltoes -45.4364 0 0
rfemur -73.3367 -23.9018 9.06875
rtibia 75.2247 0 0
rfoot -7.29305 14.6689 0
rtoes 4.63689 0 0
lowerback 8.99692 1.94664 -14.0747
upperback -3.09421 0.471469 -2.21172
thorax -8.62652 0.825745 5.43715
lowerneck 0.883773 -12.1601 -12.268
upperneck 4.5477 -16.8887 10.488
head 3.13701 -8.47389 4.39561
lclavicle 1.01763e-14 2.80228e-14 0
lhumerus -69.587 -18.3205 104.021
lradius 102.013 0 0
lwrist 61.3946 0 0
lhand -11.6354 420.186 0
lfingers 7.12502 0 0
lthumb 14.4085 -268.733 0
rclavicle 1.01763e-14 2.80228e-14 0
rhumerus 49.2682 -9.78212 -58.8338
rradius 16.938 0 0
rwrist 34.1791 0 0
rhand -19.8973 -402.647 0
rfingers 7.12502 0 0
rthumb 6.439 287.471 0
2252
root -0.754442 13.7498 -16.717 912.342 -26.0209 168.186
lfemur 12.2668 -1.24811 -15.7869
ltibia 30.7117 0 0
lfoot -22.8859 37.0071 0
ltoes -45.5572 0 0
rfemur -73.4744 -23.9414 9.12798
rtibia 75.4096 0 0
rfoot -7.42651 14.6815 0
rtoes 4.71585 0 0
lowerback 8.96357 1.95894 -14.0833
upperback -3.10817 0.489307 -2.22137
thorax -8.62646 0.834862 5.42784
lowerneck 0.866796 -12.1558 -12.2498
upperneck 4.52962 -16.877 10.4714
head 3.13049 -8.4672 4.38858
lclavicle 9.84295e-15 2.78299e-14 0
lhumerus -69.5456 -18.3522 104.048
lradius 101.965 0 0
lwrist 61.4584 0 0
lhand -11.7708 420.163 0
lfingers 7.12502 0 0
lthumb 14.2779 -270.347 0
rclavicle 9.84295e-15 2.78299e-14 0
rhumerus 49.2595 -9.78193 -58.7862
rradius 16.9849 0 0
rwrist 34.111 0 0
rhand -19.9004 -402.634 0
rfingers 7.12502 0 0
rthumb 6.43598 287.484 0
2253
root -0.756105 13.7463 -16.7319 912.376 -25.9925 168.189
lfemur 12.3895 -1.23842 -15.7914
ltibia 30.5131 0 0
lfoot -22.8284 37.0122 0
ltoes -45.6595 0 0
rfemur -73.5893 -23.974 9.16985
rtibia 75.5512 0 0
rfoot -7.51734 14.6966 0
rtoes 4.78381 0 0
lowerback 8.94141 1.96904 -14.0919
upperback -3.11669 0.503166 -2.22806
thorax -8.62621 0.842043 5.42269
lowerneck 0.856201 -12.1553 -12.2387
upperneck 4.51629 -16.8722 10.461
head 3.12546 -8.46416 4.38419
lclavicle 9.48935e-15 2.76407e-14 0
lhumerus -69.5466 -18.3834 104.072
lradius 101.945 0 0
lwrist 61.5431 0 0
lhand -11.881 420.148 0
lfingers 7.12502 0 0
lthumb 14.1716 -272.103 0
rclavicle 9.48935e-15 2.76407e-14 0
rhumerus 49.2813 -9.79409 -58.733
rradius 16.9913 0 0
rwrist 34.0848 0 0
rhand -19.9052 -402.629 0
rfingers 7.12502 0 0
rthumb 6.43134 287.489 0
2254
root -0.757902 13.7425 -16.7442 912.352 -25.9842 168.245
lfemur 12.5294 -1.22796 -15.7926
ltibia 30.3107 0 0
lfoot -22.7784 37.0198 0
ltoes -45.7725 0 0
rfemur -73.7067 -24.0095 9.20993
rtibia 75.6889 0 0
rfoot -7.59964 14.7203 0
rtoes 4.85722 0 0
lowerback 8.92116 1.9794 -14.1026
upperback -3.1235 0.516737 -2.23375
thorax -8.62546 0.849229 5.42
lowerneck 0.848047 -12.1579 -12.2312
upperneck 4.50329 -16.8718 10.454
head 3.12026 -8.46333 4.38125
lclavicle 9.04607e-15 2.74131e-14 0
lhumerus -69.5676 -18.4194 104.105
lradius 101.923 0 0
lwrist 61.6427 0 0
lhand -11.9971 420.134 0
lfingers 7.12502 0 0
lthumb 14.0595 -274.274 0
rclavicle 9.04607e-15 2.74131e-14 0
rhumerus 49.326 -9.82051 -58.6652
rradius 16.971 0 0
rwrist 34.0769 0 0
rhand -19.9145 -402.63 0
rfingers 7.12502 0 0
rthumb 6.42238 287.486 0
